<svg xmlns="http://www.w3.org/2000/svg" xmlns:xlink="http://www.w3.org/1999/xlink" id="Capa_1" x="0" y="0" version="1.1" viewBox="0 0 512 512" xml:space="preserve" style="enable-background:new 0 0 512 512"><g><g transform="translate(1 1)"><path style="fill:#00838f" d="M502.467,58.733v332.8H7.533l0-332.8c-0.009-6.792,2.685-13.309,7.488-18.112 s11.32-7.497,18.112-7.488h443.733c6.792-0.009,13.309,2.685,18.112,7.488S502.476,51.941,502.467,58.733z"/><path style="fill:#00bcd4" d="M476.867,58.733v332.8H7.533l0-332.8c-0.009-6.792,2.685-13.309,7.488-18.112 s11.32-7.497,18.112-7.488h418.133c6.792-0.009,13.309,2.685,18.112,7.488S476.876,51.941,476.867,58.733z"/><rect style="fill:#37474f" width="85.333" height="76.8" x="212.333" y="408.6"/><g><rect style="fill:#607d8b" width="59.733" height="76.8" x="212.333" y="408.6"/><path style="fill:#607d8b" d="M502.467,374.467v25.6c0.009,6.792-2.685,13.309-7.488,18.112 c-4.803,4.803-11.32,7.497-18.112,7.488H33.133c-6.792,0.009-13.309-2.685-18.112-7.488c-4.803-4.803-7.497-11.32-7.488-18.112 l0-25.6H502.467z"/></g><path style="fill:#cfd8dc" d="M476.867,374.467v25.6c0.009,6.792-2.685,13.309-7.488,18.112 c-4.803,4.803-11.32,7.497-18.112,7.488H33.133c-6.792,0.009-13.309-2.685-18.112-7.488c-4.803-4.803-7.497-11.32-7.488-18.112 l0-25.6H476.867z"/><path style="fill:#607d8b" d="M348.867,502.467H161.133c-0.012-9.056,3.58-17.746,9.984-24.15 c6.404-6.404,15.093-9.996,24.15-9.984h119.467c9.054-0.003,17.737,3.593,24.139,9.995 C345.274,484.73,348.869,493.413,348.867,502.467z"/><path style="fill:#cfd8dc" d="M323.267,502.467H161.133c-0.012-9.056,3.58-17.746,9.984-24.15 c6.404-6.404,15.093-9.996,24.15-9.984h93.867c2.882-0.026,5.754,0.347,8.533,1.109 C312.743,473.309,323.28,486.903,323.267,502.467z"/><path style="fill:#ffeb3a" d="M400.067,152.6c23.564,0,42.667-19.103,42.667-42.667s-19.103-42.667-42.667-42.667H109.933 c-23.564,0-42.667,19.103-42.667,42.667S86.369,152.6,109.933,152.6H400.067z"/><path style="fill:#0377bc" d="M289.133,195.267c9.426,0,17.067,7.641,17.067,17.067c0,9.426-7.641,17.067-17.067,17.067 c9.426,0,17.067,7.641,17.067,17.067c0,9.426-7.641,17.067-17.067,17.067h85.333c6.792-0.009,13.309,2.685,18.112,7.488 c4.803,4.803,7.497,11.32,7.488,18.112v85.333H109.933l0-85.333c-0.009-6.792,2.685-13.309,7.488-18.112 c4.803-4.803,11.32-7.497,18.112-7.488h84.736c-9.189-0.328-16.469-7.872-16.469-17.067c0-9.195,7.28-16.739,16.469-17.067 c-9.305-0.328-16.631-8.051-16.468-17.36c0.163-9.309,7.755-16.771,17.066-16.773h-85.333c-6.792,0.009-13.309-2.685-18.112-7.488 c-4.803-4.803-7.497-11.32-7.488-18.112V33.133c-0.009-6.792,2.685-13.309,7.488-18.112c4.803-4.803,11.32-7.497,18.112-7.488 h238.933c6.792-0.009,13.309,2.685,18.112,7.488c4.803,4.803,7.497,11.32,7.488,18.112v136.533 c0.009,6.792-2.685,13.309-7.488,18.112c-4.803,4.803-11.32,7.497-18.112,7.488H289.133z"/><path style="fill:#02a9f4" d="M264.387,195.267c9.086,0.466,16.214,7.969,16.214,17.067c0,9.098-7.128,16.601-16.214,17.067 c9.25,0.468,16.44,8.224,16.209,17.483c-0.231,9.259-7.801,16.645-17.062,16.651h85.333c6.792-0.009,13.309,2.685,18.112,7.488 c4.803,4.803,7.497,11.32,7.488,18.112v85.333H109.933l0-85.333c-0.009-6.792,2.685-13.309,7.488-18.112 c4.803-4.803,11.32-7.497,18.112-7.488h84.565c-0.065-0.009-0.125-0.039-0.171-0.085c-0.832,0.004-1.661-0.082-2.475-0.256 c-1.888-0.398-3.702-1.089-5.376-2.048l-1.024-0.768c-1.248-0.863-2.368-1.897-3.328-3.072c-0.617-0.741-1.161-1.542-1.621-2.389 c-0.482-0.751-0.883-1.552-1.195-2.389c-0.414-1.101-0.7-2.247-0.853-3.413c-0.342-1.747-0.342-3.544,0-5.291 c0.153-1.167,0.439-2.312,0.853-3.413c0.312-0.837,0.712-1.638,1.195-2.389v-0.085c0.471-0.815,1.013-1.586,1.621-2.304 c0.423-0.594,0.942-1.113,1.536-1.536c0.211-0.297,0.471-0.557,0.768-0.768c0.32-0.283,0.663-0.54,1.024-0.768l1.024-0.768 c1.674-0.959,3.488-1.65,5.376-2.048c0.698-0.174,1.414-0.26,2.133-0.256c0.219-0.076,0.452-0.105,0.683-0.085 c-0.231,0.019-0.464-0.01-0.683-0.085c-0.663,0.005-1.323-0.082-1.963-0.256c-1.949-0.374-3.823-1.066-5.547-2.048l-1.024-0.768 c-1.248-0.863-2.368-1.897-3.328-3.072c-0.608-0.718-1.151-1.489-1.621-2.304v-0.085c-0.482-0.751-0.883-1.552-1.195-2.389 c-0.414-1.101-0.7-2.247-0.853-3.413c-0.174-0.871-0.26-1.757-0.256-2.645c0.028-9.414,7.652-17.039,17.067-17.067h-85.333 c-6.792,0.009-13.309-2.685-18.112-7.488c-4.803-4.803-7.497-11.32-7.488-18.112V33.133c-0.009-6.792,2.685-13.309,7.488-18.112 c4.803-4.803,11.32-7.497,18.112-7.488h213.333c6.792-0.009,13.309,2.685,18.112,7.488c4.803,4.803,7.497,11.32,7.488,18.112 v136.533c0.009,6.792-2.685,13.309-7.488,18.112c-4.803,4.803-11.32,7.497-18.112,7.488H264.387z"/><path style="fill:#1566c0" d="M306.2,246.467c-0.028,9.414-7.652,17.039-17.067,17.067h-25.6 c9.261-0.005,16.831-7.392,17.062-16.651c0.231-9.259-6.959-17.014-16.209-17.483c9.086-0.466,16.214-7.969,16.214-17.067 c0-9.098-7.128-16.601-16.214-17.067h24.747c9.426,0,17.067,7.641,17.067,17.067s-7.641,17.067-17.067,17.067 C298.548,229.428,306.173,237.052,306.2,246.467z"/><path style="fill:#2296f3" d="M280.6,246.467c-0.028,9.414-7.652,17.039-17.067,17.067h-43.435 c-0.065-0.009-0.125-0.039-0.171-0.085c-0.832,0.004-1.661-0.082-2.475-0.256c-1.888-0.398-3.702-1.089-5.376-2.048l-1.024-0.768 c-1.248-0.863-2.368-1.897-3.328-3.072c-0.617-0.741-1.161-1.542-1.621-2.389c-0.482-0.751-0.883-1.552-1.195-2.389 c-0.414-1.101-0.7-2.247-0.853-3.413c-0.342-1.747-0.342-3.544,0-5.291c0.153-1.167,0.439-2.312,0.853-3.413 c0.312-0.837,0.712-1.638,1.195-2.389v-0.085c0.471-0.815,1.013-1.586,1.621-2.304c0.423-0.594,0.942-1.113,1.536-1.536 c0.211-0.297,0.471-0.557,0.768-0.768c0.32-0.283,0.663-0.539,1.024-0.768l1.024-0.768c1.674-0.959,3.488-1.65,5.376-2.048 c0.698-0.174,1.414-0.26,2.133-0.256c0.219-0.076,0.452-0.105,0.683-0.085c-0.231,0.019-0.464-0.01-0.683-0.085 c-0.663,0.005-1.323-0.082-1.963-0.256c-1.949-0.374-3.823-1.066-5.547-2.048l-1.024-0.768c-1.248-0.863-2.368-1.897-3.328-3.072 c-0.608-0.718-1.151-1.489-1.621-2.304v-0.085c-0.482-0.751-0.883-1.552-1.195-2.389c-0.414-1.101-0.7-2.247-0.853-3.413 c-0.174-0.871-0.26-1.757-0.256-2.645c0.027-9.414,7.652-17.039,17.067-17.067h43.52c9.086,0.466,16.214,7.969,16.214,17.067 c0,9.098-7.128,16.601-16.214,17.067C273.451,229.914,280.551,237.388,280.6,246.467z"/><g><path style="fill:#ffeb3a" d="M178.2,41.667h17.067c9.426,0,17.067,7.641,17.067,17.067V75.8 c0,9.426-7.641,17.067-17.067,17.067H178.2c-9.426,0-17.067-7.641-17.067-17.067V58.733 C161.133,49.308,168.774,41.667,178.2,41.667z"/><path style="fill:#ffeb3a" d="M314.733,41.667H331.8c9.426,0,17.067,7.641,17.067,17.067V75.8 c0,9.426-7.641,17.067-17.067,17.067h-17.067c-9.426,0-17.067-7.641-17.067-17.067V58.733 C297.667,49.308,305.308,41.667,314.733,41.667z"/></g><g><rect style="fill:#f5f5f5" width="187.733" height="34.133" x="161.133" y="161.133"/><path style="fill:#f5f5f5" d="M348.867,144.067v17.067H161.133v-17.067c0.027-9.414,7.652-17.039,17.067-17.067h153.6 C341.214,127.028,348.839,134.652,348.867,144.067z"/></g><path style="fill:#fdd834" d="M365.933,314.733v59.733H144.067v-59.733c0.027-9.414,7.652-17.039,17.067-17.067h187.733 C358.281,297.694,365.906,305.319,365.933,314.733z"/><path style="fill:#ffeb3a" d="M340.333,314.733v59.733H144.067v-59.733c0.027-9.414,7.652-17.039,17.067-17.067h162.133 C332.681,297.694,340.306,305.319,340.333,314.733z"/><g><path style="fill:#2296f3" d="M109.933,297.667v76.8H67.267v-34.133C67.275,316.773,86.373,297.675,109.933,297.667z"/><path style="fill:#2296f3" d="M442.733,340.333v34.133h-42.667v-76.8C423.627,297.675,442.725,316.773,442.733,340.333z"/></g></g><g><path d="M179.2,102.4h17.067c14.132-0.015,25.585-11.468,25.6-25.6V59.733c-0.015-14.132-11.468-25.585-25.6-25.6H179.2 c-14.132,0.015-25.585,11.468-25.6,25.6V76.8C153.615,90.932,165.068,102.385,179.2,102.4z M170.667,59.733 c0.006-4.71,3.823-8.527,8.533-8.533h17.067c4.71,0.006,8.527,3.823,8.533,8.533V76.8c-0.006,4.71-3.823,8.527-8.533,8.533H179.2 c-4.71-0.006-8.527-3.823-8.533-8.533V59.733z"/><path d="M315.733,102.4H332.8c14.132-0.015,25.585-11.468,25.6-25.6V59.733c-0.015-14.132-11.468-25.585-25.6-25.6h-17.067 c-14.132,0.015-25.585,11.468-25.6,25.6V76.8C290.149,90.932,301.601,102.385,315.733,102.4z M307.2,59.733 c0.006-4.71,3.823-8.527,8.533-8.533H332.8c4.71,0.006,8.527,3.823,8.533,8.533V76.8c-0.006,4.71-3.823,8.527-8.533,8.533h-17.067 c-4.71-0.006-8.527-3.823-8.533-8.533V59.733z"/><path d="M477.867,25.6h-69.478C404.519,10.569,390.988,0.047,375.467,0H136.533c-15.521,0.047-29.052,10.569-32.922,25.6H34.133 C15.291,25.622,0.022,40.891,0,59.733v341.333c0.022,18.842,15.291,34.112,34.133,34.133H204.8v25.6h-8.533 c-23.553,0.028-42.639,19.114-42.667,42.667c0,4.713,3.821,8.533,8.533,8.533h187.733c4.713,0,8.533-3.82,8.533-8.533 c-0.028-23.553-19.114-42.639-42.667-42.667H307.2v-25.6h170.667c18.843-0.02,34.113-15.29,34.133-34.133V59.733 C511.98,40.89,496.71,25.62,477.867,25.6z M494.933,59.733v307.2h-42.667v-25.6c-0.042-24.958-18.061-46.254-42.667-50.429v-0.771 c-0.022-18.842-15.291-34.112-34.133-34.133h-61.306c3.296-8.807,1.326-18.721-5.086-25.6c6.412-6.879,8.382-16.793,5.086-25.6 h61.306c18.842-0.022,34.112-15.291,34.133-34.133v-9.304c24.628-4.136,42.667-25.456,42.667-50.429S434.228,64.64,409.6,60.504 V42.667h68.267C487.288,42.677,494.923,50.312,494.933,59.733z M409.6,366.933v-58.522c15.032,3.868,25.554,17.4,25.6,32.922v25.6 H409.6z M375.467,366.933v-51.2c-0.015-14.132-11.468-25.585-25.6-25.6H162.133c-14.132,0.015-25.585,11.468-25.6,25.6v51.2 h-17.067v-76.8c0.009-9.422,7.645-17.057,17.067-17.067h238.933c9.422,0.009,17.057,7.645,17.067,17.067v76.8H375.467z M153.6,366.933v-51.2c0.006-4.71,3.823-8.527,8.533-8.533h187.733c4.71,0.006,8.527,3.823,8.533,8.533v51.2H153.6z M76.8,366.933 v-25.6c0.047-15.521,10.569-29.052,25.6-32.922v58.522H76.8z M341.333,153.6H170.667v-8.533c0.006-4.71,3.823-8.527,8.533-8.533 h153.6c4.71,0.006,8.527,3.823,8.533,8.533V153.6z M170.667,170.667h170.667v17.067H170.667V170.667z M213.333,247.467 c0.006-4.71,3.823-8.527,8.533-8.533c4.713,0,8.533-3.821,8.533-8.533s-3.821-8.533-8.533-8.533c-4.713,0-8.533-3.821-8.533-8.533 s3.821-8.533,8.533-8.533h68.267c4.713,0,8.533,3.82,8.533,8.533s-3.821,8.533-8.533,8.533c-4.713,0-8.533,3.82-8.533,8.533 s3.821,8.533,8.533,8.533c4.713,0,8.533,3.821,8.533,8.533c0,4.713-3.821,8.533-8.533,8.533h-68.267 C217.156,255.994,213.339,252.177,213.333,247.467z M409.6,78.012c15.058,3.828,25.599,17.385,25.599,32.922 s-10.541,29.093-25.599,32.922V78.012z M136.533,17.067h238.933c9.422,0.009,17.057,7.645,17.067,17.067v136.533 c-0.009,9.422-7.645,17.057-17.067,17.067H358.4v-42.667c-0.015-14.132-11.468-25.585-25.6-25.6H179.2 c-14.132,0.015-25.585,11.468-25.6,25.6v42.667h-17.067c-9.422-0.009-17.057-7.645-17.067-17.067V34.133 C119.476,24.712,127.112,17.076,136.533,17.067z M102.4,143.855c-15.059-3.827-25.601-17.384-25.601-32.922 S87.341,81.839,102.4,78.012V143.855z M34.133,42.667H102.4v17.837C77.772,64.64,59.733,85.96,59.733,110.933 s18.038,46.293,42.667,50.429v9.304c0.022,18.842,15.291,34.112,34.133,34.133h61.306c-3.296,8.807-1.326,18.721,5.086,25.6 c-6.413,6.879-8.382,16.793-5.085,25.6h-61.306c-18.842,0.022-34.112,15.291-34.133,34.133v0.771 c-24.606,4.175-42.624,25.472-42.667,50.429v25.6H17.067v-307.2C17.076,50.312,24.712,42.676,34.133,42.667z M339.871,494.933 H172.129c3.627-10.221,13.292-17.054,24.137-17.067h119.467C326.579,477.879,336.243,484.713,339.871,494.933z M290.133,460.8 h-68.267v-25.6h68.267V460.8z M477.867,418.133H34.133c-9.422-0.009-17.057-7.645-17.067-17.067V384h477.867v17.067 C494.923,410.488,487.288,418.123,477.867,418.133z"/></g></g></svg>